<svg xmlns="http://www.w3.org/2000/svg" viewBox="0 0 437.55 530.78">
  <defs>
    <style>
      .a {
        fill: #2c2c2c;
      }
    </style>
  </defs>
  <g>
    <path class="a" d="M435.91,83.92c0-.49,0-1,0-1.46a1.08,1.08,0,0,0-.32-.83,1.6,1.6,0,0,0-.16-1.18,1.65,1.65,0,0,0-1-.75h0c-.48-.14-1-.24-1.45-.38l.05,0a4.63,4.63,0,0,0-.48-.14c-.37-.08-.74-.14-1.12-.2-.83-.16-1.66-.31-2.49-.48-1.49-.31-3-.55-4.51-.79q-5.64-.89-11.28-1.73c-7.73-1.15-15.46-2.27-23.19-3.44l-.52-.07a1.91,1.91,0,0,0-.64.11L385.62,71q-6.74-3.27-13.46-6.56a2.09,2.09,0,0,0-.9-.24,1.67,1.67,0,0,0-.44.06,1.78,1.78,0,0,0-1.05.81,1.81,1.81,0,0,0-.22.68c-.22,0-.45,0-.67.07l-2.74.37-1.34.18.48-.07c-1.61.19-3.23.41-4.84.63l-2.18.29h0l-.5.07h.08l-.87.12.55-.08c-4.63.56-9.23,1.32-13.83,2.06l-6.76,1.09c-.51-1.83-1-3.68-1.36-5.53s-.8-3.92-1.15-5.89-.71-3.87-1.06-5.81c-.19-1-.38-2-.59-3a27.53,27.53,0,0,0-.78-2.79,30.79,30.79,0,0,0-2.43-5.77c-1-1.74-2.09-3.4-3.12-5.11s-2-3.4-3.08-5a45.45,45.45,0,0,0-3.8-4.95c-1.3-1.47-2.59-2.95-4-4.37-.66-.69-1.29-1.39-2-2s-1.49-1.43-2.29-2.11a34.34,34.34,0,0,0-5.24-3.53c-1.74-1-3.47-2-5.22-3s-3.45-1.89-5.19-2.81c-.84-.44-1.7-.83-2.56-1.21s-1.92-.88-2.87-1.33c-1.89-.91-3.79-1.79-5.73-2.6-1-.41-1.93-.79-2.92-1.13s-1.73-.54-2.6-.78A38.86,38.86,0,0,0,272.67.48c-2-.22-4.08-.4-6.12-.46l-1.47,0c-1.46,0-2.93.07-4.39.2a42.37,42.37,0,0,0-6.32,1.08c-1.86.47-3.71,1-5.57,1.48S245,3.81,243.15,4.31s-3.92,1-5.85,1.6a28.55,28.55,0,0,0-3.1,1.23,24,24,0,0,0-2.43,1.22,41.53,41.53,0,0,0-5.17,3.69c-1.48,1.19-3,2.4-4.37,3.69s-2.88,2.81-4.24,4.31-2.74,3.1-4,4.74-2.38,3.16-3.42,4.84c-2.09,3.34-4,6.81-5.82,10.29-.89,1.67-1.71,3.37-2.49,5.1-.42.93-.83,1.87-1.25,2.81a1,1,0,0,0-.17,0c-1.17,0-2.33-.09-3.5-.11h-.58c-.46,0-.93,0-1.4,0a16.32,16.32,0,0,0-2.94.52c-.91.23-1.81.51-2.72.73s-1.62.33-2.44.45c-2,.24-3.92.44-5.89.63a98.56,98.56,0,0,0-11,1.38,43.41,43.41,0,0,0-5,1.45c-1,.34-2,.72-3,1.15l-.35.16-2.63.85c-1.45.47-2.89,1-4.3,1.56a37.68,37.68,0,0,0-4.53,2.06c-.67.38-1.36.75-2,1.19s-1.43,1-2.11,1.57a30.81,30.81,0,0,0-3.4,3.16c-2.19,2.41-4.25,4.91-6.21,7.5s-3.77,5-5.65,7.52-3.68,5.05-5.58,7.54l-.16.2.08-.1-.12.16c-1,1.25-1.91,2.5-2.78,3.82a34.19,34.19,0,0,0-2.2,4,33.1,33.1,0,0,0-1.76,4.38,37.81,37.81,0,0,0-1,4.18c-.16.81-.32,1.62-.46,2.43l-32.89,5.43c-13.7,2.26-27.37,4.69-41,7-14.06,2.4-28.12,4.82-42.2,7.11a1.57,1.57,0,0,0-1,.74,1.63,1.63,0,0,0-.16,1.26,1.62,1.62,0,0,0,.75,1,1.7,1.7,0,0,0,1.25.16l.57-.09v.25a2.09,2.09,0,0,0-1,.55A2,2,0,0,0,1,131q.51,7,1,14c.29,4.53.56,9.06.84,13.59.55,9,1.13,18,1.68,26.92,1.1,18.06,2.35,36.11,3.63,54.15q1.93,27.39,3.94,54.78c1.27,17.87,2.5,35.74,3.86,53.61q1.25,16.42,2.51,32.85c.38,5,.81,9.93,1.2,14.9.18,2.41.38,4.82.57,7.23.1,1.22.19,2.45.28,3.67.08.95.13,1.9.24,2.84v0c.22,2,.32,4,.58,5.93,0-.19,0-.37-.07-.56.09.72.16,1.44.24,2.17,0,.3.07.6.11.9s.05.38.08.57,0,.24,0,.36a2.59,2.59,0,0,0,.22.89,3.45,3.45,0,0,0,.09.6,4.68,4.68,0,0,0,.23.56,1.74,1.74,0,0,0,1.05.81,1.76,1.76,0,0,0,1.69-.45,1.73,1.73,0,0,0,.45-.77h0a3.33,3.33,0,0,0,.09-1,2,2,0,0,0,.11-.65,2,2,0,0,0,0-.35h0a1.55,1.55,0,0,0,0-.22,3.39,3.39,0,0,0,0-.45c.7,1.24,1.41,2.48,2.12,3.71,1.25,2.19,2.52,4.37,3.79,6.55,2.5,4.31,5.06,8.58,7.62,12.86s5,8.35,7.57,12.52,5.14,8.33,7.72,12.49Q62,478.22,69.55,490.41q3.77,6.07,7.58,12.1,1.84,2.92,3.67,5.86c1.09,1.73,2.17,3.46,3.3,5.16l1.21,1.85c.17.27.35.53.52.79s.31.42.48.63a2.49,2.49,0,0,0,1,.62l.06,0c0,.1,0,.2,0,.3s.09.47.13.71.11.65.15,1c.06.59.12,1.18.22,1.76a2.1,2.1,0,0,0,.54.92,1.56,1.56,0,0,0,.28.23l.06.93c0,.31.06.63.11,1a6.69,6.69,0,0,0,.16.75,3.66,3.66,0,0,0,.21.55c0,.18,0,.37,0,.56a16.26,16.26,0,0,0,0,1.71.88.88,0,0,0,.86.87.5.5,0,0,0,.13,0c0,.25.05.5.09.74a2.62,2.62,0,0,0,.15.39,1.17,1.17,0,0,0,.34.36,1.28,1.28,0,0,0,.81.2,4.46,4.46,0,0,0,.51-.07,3,3,0,0,0,.32-.06l.51-.14a2.46,2.46,0,0,0,1.07.65,2.53,2.53,0,0,0,1.85-.25c9.28-4.39,18.64-8.6,28-12.91s18.87-8.78,28.29-13.2q28.16-13.2,56.26-26.51,57.51-27.19,115-54.43l54.4-25.75c15.16-7.18,30.34-14.31,45.47-21.55l-.07,0a9,9,0,0,0,1.2-.61c1-.4,1.87-.89,2.78-1.36a8.39,8.39,0,0,0,2.21-1.28,2.88,2.88,0,0,0,.77-1.34,2.45,2.45,0,0,0,.1-1.58,2.33,2.33,0,0,0-.62-1.06,2.4,2.4,0,0,0-1-.6,2.66,2.66,0,0,0-1-.26l.06,0a1.08,1.08,0,0,0,.21-.34c0-.07,0-.14,0-.21s0-.15,0-.23.07-.34.11-.52c.07-.34.11-.69.17-1,.13-.79.23-1.59.34-2.38l0-.21a.88.88,0,0,0-.11-.39.86.86,0,0,0-.47-.37l-.21,0a.87.87,0,0,0-.22,0c0-.44,0-.88.07-1.32s.07-.7.09-1l0-.3.06-.89.09-1.19.1-1.81c.06-1.23.13-2.45.2-3.68.05-.82.11-1.66.19-2.49s.11-1.69.15-2.48c.05-1,.09-1.95.13-2.92.05-1.2.1-2.39.16-3.59.35-7.23.66-14.91,1-24.91.65-19.17,1.25-37.95,1.69-52.18.42-13.43.77-27.09,1.1-40.3q.17-6.12.32-12.23.4-15.47.78-30.93l.57-22.47.12-4.9c.12-4.44.24-9,.34-13.53q.12-5.52.23-11c.06-2.62.12-5.23.17-7.85q.21-9.5.4-19,.09-4.74.17-9.48l0-1.82c0-.78,0-1.57,0-2.36l.3-.09h0a1.86,1.86,0,0,0,1.36-1.79A1.86,1.86,0,0,0,435.91,83.92ZM346.83,73.43c3.66-.61,7.34-1.18,11-2,2.64-.56,5.32-1,8-1.55,1.05-.23,2.12-.39,3.18-.6l.85-.18a3.35,3.35,0,0,0,.62-.17c.28-.07.56-.11.83-.17a9.61,9.61,0,0,0,1-.23l.29-.06,11.33,5.58c2.06,1,4.11,2.05,6.19,3l.46.22a4.56,4.56,0,0,1,.75-.06h.61l1.36.08c1.2.07,2.38.17,3.58.34.21,0,.41.07.62.11l.14,0a.7.7,0,0,0,0-.14L412.08,80c3.76.59,7.53,1.15,11.29,1.71,1.63.24,3.25.47,4.89.64l2.5.28,1.15.15.44,0h.23l1.13.06c0,.44,0,.9-.07,1.35-.53.06-1.05.15-1.57.24a2.19,2.19,0,0,0-.36,0l-.19,0a2.26,2.26,0,0,0-1,0l-.31,0a5.43,5.43,0,0,0-.73.09c-.57.08-1.13.2-1.69.31-2.25.44-4.51.85-6.77,1.3-5.22,1-10.43,2.09-15.65,3.13l-14.43,2.9v-.06c0-.61,0-1.22,0-1.83,0-1.21,0-2.42,0-3.63,0-2.47,0-5,0-7.42v-.82a.38.38,0,0,0-.37-.37.37.37,0,0,0-.36.37V86q0,3.23,0,6.45L372.56,96q-15.4,3.14-30.81,6.31-.13-2.89-.31-5.79c-.16-2.45-.47-4.89-.8-7.32l0,.13c0-.13,0-.26-.05-.4h0V89l0-.12h0l0-.11v.09l-.06-.46v0l0-.15a2.54,2.54,0,0,1,0-.29l0,.2c-.55-4-1.44-8-2.23-12l-.3-1.38ZM330.42,58.9c0,.18.07.36.11.54-.06-.15-.1-.3-.16-.45ZM199.89,66.51l.05-.13a1.52,1.52,0,0,0,.16-.4c.08-.18.15-.37.23-.56a5032635437188.26,5032635437188.26,0,0,1,.3-.74h0v0c.09-.19.17-.39.25-.58l.07,0c-.05.12-.11.24-.16.37-.38.94-.75,1.9-1.1,2.86C199.77,67,199.83,66.75,199.89,66.51Zm-11.84,100,.25,0a3.59,3.59,0,0,0,.47,0l-.09,0a2,2,0,0,1-.33.09,3.39,3.39,0,0,1-.55,0l-.1,0Zm6.2-57.84v-1.31l.21-.08Zm4.92-17.11c.09-2,.09-3.94.14-5.91.07-2.48.25-5,.52-7.42.13-1,.27-2,.48-3,.24-1.18.51-2.35.82-3.51a51.42,51.42,0,0,1,2.27-6.45,76,76,0,0,1,3.48-6.78l.17,0,3.06-.46a20.71,20.71,0,0,0,2.72.18c.94,0,1.88-.06,2.81-.14,2-.19,4-.44,5.93-.7,4.09-.52,8.25-.76,12.23-1.93,1.22-.36,2.42-.75,3.62-1.16,1.74-.3,3.49-.59,5.23-.9,1.34-.24,2.67-.54,4-.82s2.59-.52,3.9-.7c2.7-.33,5.39-.68,8.09-1a35,35,0,0,1,7.65-.23,8.75,8.75,0,0,1,1.23.28l0,0v0a5.32,5.32,0,0,1-.25.77,12.45,12.45,0,0,1-1.09,1.83c-1.09,1.33-2.33,2.52-3.37,3.89a20.89,20.89,0,0,0-1.48,2.14,23.27,23.27,0,0,0-1.25,2.62,20.21,20.21,0,0,0-.74,2.28c-.23.85-.46,1.7-.68,2.55a45.55,45.55,0,0,0-1.08,4.9c-.19,1.25-.36,2.51-.44,3.78a19.35,19.35,0,0,0,.2,4A21.83,21.83,0,0,0,258.1,83l.1.28-34.5,5.66q-12.3,2-24.61,4C199.12,92.46,199.15,92,199.17,91.58Zm62.9-9h0l-.15,0Zm5.65-.9c-.11-.72-.22-1.44-.34-2.17-.12-.92-.25-1.85-.33-2.78-.05-.57-.08-1.14-.1-1.72s0-1,.08-1.5c.12-.72.27-1.44.46-2.15s.46-1.57.72-2.34q.75-2.3,1.67-4.51a34.5,34.5,0,0,1,2.17-4.29c.83-1.37,1.68-2.71,2.64-4a37.77,37.77,0,0,1,3-3.41c.52-.51,1-1,1.53-1.56a8.39,8.39,0,0,0,1.52-2.38,8,8,0,0,0,.64-3.08,5.07,5.07,0,0,0-.35-1.85,4.73,4.73,0,0,0-.29-.6,6,6,0,0,0-1.12-1.26,12.57,12.57,0,0,0-4.6-2.46,15,15,0,0,0-2.37-.54c-.91-.13-1.83-.26-2.75-.32-1.71-.13-3.42-.13-5.14-.14-3.29,0-6.58-.08-9.87-.12-.92,0-1.84,0-2.77,0-1.23,0-2.46,0-3.7.11-2.2.15-4.4.41-6.59.72-1.59.2-3.18.38-4.77.52s-3.41.24-5.11.44-3.66.53-5.47.87l-2.25.46c-.82.16-1.65.31-2.47.5-1.63.36-3.26.76-4.89,1.16q3.08-4.2,6.22-8.33A40.49,40.49,0,0,1,227,30.55a54.73,54.73,0,0,1,4.41-3.79c1.64-1.21,3.35-2.32,5.07-3.42.87-.56,1.75-1.11,2.65-1.64a29.2,29.2,0,0,1,2.68-1.35,58.52,58.52,0,0,1,10.68-2.81c1.91-.37,3.82-.73,5.72-1.15.93-.2,1.86-.44,2.79-.65s1.76-.37,2.64-.56c1.28-.28,2.54-.61,3.82-.87s2.39-.46,3.6-.64a26.5,26.5,0,0,1,5.56-.14c.8.12,1.6.28,2.4.43l2.93.52a31.88,31.88,0,0,1,6,1.76c1.57.71,3.12,1.5,4.64,2.31a40.94,40.94,0,0,1,4.19,2.7c1.47,1,2.89,2.17,4.37,3.21s2.75,1.91,4.09,2.92,2.86,2.31,4.22,3.56A37.06,37.06,0,0,1,313.25,35a45.82,45.82,0,0,1,3.65,5.79c.53,1,1,2.05,1.44,3.08s.91,2,1.35,3a54.23,54.23,0,0,1,1.82,5.44c.52,1.87.87,3.79,1.23,5.71s.77,3.66,1.18,5.49c.43,2,.8,4,1.1,6,.15,1,.29,1.94.43,2.91l-32.7,5.28Q280.22,79.65,267.72,81.71Zm-33.81-60.5a2.19,2.19,0,0,0,.34-.46l1-.4ZM338.35,103c-.05-.72-.1-1.44-.16-2.16,0-.41-.07-.83-.11-1.24a1.31,1.31,0,0,0,.25-.22c.05,1.2.09,2.4.11,3.6Zm-1.12-13.87c-.12-.48-.23-1-.35-1.42,0-.2-.07-.39-.1-.59a2.73,2.73,0,0,0,.21-.3c.22,1.24.4,2.49.57,3.73C337.45,90.07,337.35,89.59,337.23,89.12ZM150.17,62.91l-.06,0,.14-.09ZM125.4,104.49l.07-.11,0,0a2.13,2.13,0,0,0-.07.44l-.26,0C125.21,104.76,125.31,104.63,125.4,104.49Zm5.22-2.89c.39-.85.79-1.7,1.18-2.56s.83-1.6,1.24-2.4c.16-.3.34-.59.51-.88s.46-.83.72-1.23c.5-.8,1-1.6,1.53-2.38C137.86,89.06,140,86,142.2,83c.61-.78,1.24-1.55,1.87-2.32s1.41-1.59,2.13-2.36a42.17,42.17,0,0,1,4.43-4c.77-.58,1.55-1.14,2.35-1.68s1.73-1.09,2.62-1.6a53.73,53.73,0,0,1,5.06-2.61q1-.41,2.07-.75c.77-.26,1.56-.48,2.33-.73,1.62-.53,3.22-1.11,4.84-1.63s3.28-.94,4.93-1.35a43.36,43.36,0,0,1,4.36-.8c2.53-.29,5.08-.4,7.62-.67a39.15,39.15,0,0,0,7.88-1.64,1.64,1.64,0,0,0,.94-.77l.25-.05-.49,1.29a73.62,73.62,0,0,0-3.09,11.38c-.45,2.44-.8,4.88-1.14,7.33s-.57,4.8-.88,7.2a54.62,54.62,0,0,1-1,5.37c-.16.65-.31,1.3-.47,1.95Q172,97.29,155.15,100q-12.77,2.06-25.52,4.18ZM183,167.76a6.35,6.35,0,0,0,2.74,1.76,7.58,7.58,0,0,0,1.33.32,5.76,5.76,0,0,0,1.55.07,6.22,6.22,0,0,0,.88-.17,5.42,5.42,0,0,0,1-.47,6.14,6.14,0,0,0,1.4-1.09,7,7,0,0,0,1.07-1.41c-.12.32-.24.64-.37,1a20.53,20.53,0,0,1-1.57,2.73c-.18.22-.37.43-.57.64a6.13,6.13,0,0,1-.7.65,6.85,6.85,0,0,1-.94.56,6.49,6.49,0,0,1-1,.26,13.8,13.8,0,0,1-2.65,0A12.32,12.32,0,0,1,183,172a6.07,6.07,0,0,1-.82-.48,6.88,6.88,0,0,1-.54-.54,8.46,8.46,0,0,1-.77-1.34,15.45,15.45,0,0,1-.89-3.28,13.69,13.69,0,0,1,0-2.79,13,13,0,0,1,.79-2.67,15.31,15.31,0,0,1,1.52-2.71,8.72,8.72,0,0,1,.79-.82c0,.18,0,.36,0,.53-.22.66-.43,1.31-.63,2a14.12,14.12,0,0,0-.8,4.59A5.41,5.41,0,0,0,183,167.76Zm12.45-35.59c0-1.93.09-3.86.21-5.78s.27-3.88.41-5.82c.26-3.67.68-7.32,1.16-11,.28-2,.59-4,.85-6.06s.49-4,.7-6l10.45-1.71q34.95-5.72,69.89-11.33,23.55-3.81,47.07-7.69c.22,1.42.45,2.85.7,4.27.35,1.94.72,3.89,1.14,5.82s1,3.89,1.48,5.83a88.14,88.14,0,0,1,2.18,9.76c.07.61.12,1.23.19,1.84-9.31,1.92-18.61,3.86-27.92,5.76q-35.58,7.29-71.13,14.71-18.69,3.85-37.38,7.74C195.4,132.42,195.39,132.3,195.4,132.17ZM265.86,4.62c.25,0,.49,0,.74,0-.78,0-1.56,0-2.35,0-1,0-2,0-3,.07C262.81,4.64,264.33,4.6,265.86,4.62ZM70.19,118.31c11.71-1.8,23.41-3.7,35.11-5.57S129,109,140.77,107.07c11.52-1.85,23-3.77,34.53-5.67,4.11-.69,8.23-1.35,12.35-2-.77,3.41-1.41,6.85-1.88,10.32a118,118,0,0,0-.92,12.17c-.11,3.92-.12,7.83-.34,11.74,0,.4,0,.81-.06,1.21q-10.75,2.22-21.52,4.44-13.35,2.75-26.71,5.53c-9.19,1.9-18.38,3.8-27.56,5.76q-13.43,2.86-26.82,5.84-6.7,1.49-13.4,3c-2.24.51-4.47,1.06-6.69,1.61l-1.39.35c-.72.18-1.44.32-2.16.47l-.62.13-2.65-3.56q-5.64-7.59-11.21-15.23a2.75,2.75,0,0,0-.91-.86,1.42,1.42,0,0,0,.37-.61,1.48,1.48,0,0,0-.15-1.11,1.5,1.5,0,0,0-.86-.66l0,0a1.77,1.77,0,0,0-.48-.42,6.5,6.5,0,0,0-.86-.36c-.25-.11-.49-.22-.74-.31a3.09,3.09,0,0,0-.41-.18l-.56-.22c-1-.4-2-.74-3-1.08-1.51-.53-3-1-4.54-1.54-2.88-.95-5.75-1.9-8.64-2.82Q15.21,130.52,7.51,128C28.38,124.66,49.29,121.5,70.19,118.31Zm-30,20.54,0,0h0ZM84.52,504.46q-3.66-5.82-7.31-11.66c-2.61-4.14-5.25-8.26-7.86-12.4q-3.76-5.94-7.53-11.88l-8-12.51c-2.62-4.12-5.28-8.21-7.94-12.29C40.51,435.41,35,427.13,29.42,419c-1.11-1.62-2.21-3.25-3.39-4.82h0a1.1,1.1,0,0,0-.58-.48c0-.75-.07-1.49-.11-2.24-.09-1.55-.16-3.11-.26-4.67-.13-2-.26-3.93-.38-5.89-.25-4.1-.52-8.19-.77-12.28s-.54-8.36-.81-12.54q-1.74-26.82-3.66-53.61-1-13.4-1.94-26.8-1-13.63-1.93-27.28-1.9-27-3.93-54c-1-13.86-2.16-27.71-3.28-41.56-.56-6.84-1.1-13.68-1.66-20.52-.29-3.52-.58-7.05-.86-10.57s-.52-7-.77-10.52c5.79,1.92,11.55,3.9,17.31,5.87,2.93,1,5.88,2,8.82,2.93,1.46.48,2.92,1,4.38,1.4.6.19,1.2.38,1.81.55l.63.16a8.59,8.59,0,0,0,.84.21l.42.12.35.07c.19,0,.38.1.57.15h0a2.23,2.23,0,0,0-.67,1.08,2.15,2.15,0,0,0,.23,1.75c.25.35.49.7.74,1q1.11,25.1,2.16,50.19t2.17,50q1.11,25.23,2.21,50.45c.72,16.22,1.38,32.44,2.07,48.67q.62,14.42,1.25,28.84l.66,15.09q.16,3.81.32,7.64c0,.61,0,1.22.07,1.83,0,.34,0,.68,0,1a1,1,0,0,1,0,.24c0,.31,0,.61.05.91s0,.31,0,.46l0,.56s0,.09,0,.13c.1,1.51.16,3,.23,4.53,0,.57.06,1.15.08,1.72l-4.94.68-6.14.91-12.36,1.82-1.5.22a.76.76,0,0,0-.48.38.79.79,0,0,0-.08.62.78.78,0,0,0,.37.48l.19.09a1,1,0,0,0,.43,0l12.39-1.83,6.13-.91c2-.3,4-.59,6-.92H52c0,.24,0,.49,0,.73,0,.51.08,1,.14,1.53a.51.51,0,0,0,.13.3.47.47,0,0,0,.3.12.43.43,0,0,0,.42-.42c0-.36,0-.72,0-1.07s0-.91,0-1.36l.49-.08c0-.11-.09-.23-.14-.35a4.08,4.08,0,0,1-.23-1.09l-.18,0L52.9,407c-.06-1.52-.14-3-.17-4.55a.41.41,0,0,0,0-.11c0-.3,0-.6,0-.91s0-.68,0-1l0-.35-.06-.91c-.1-2.1-.19-4.2-.29-6.3q-.29-6.09-.55-12.17-.52-12-1.07-24.09-1.08-24.09-2.2-48.2-.57-12.45-1.11-24.92-.56-12.74-1.12-25.46Q45.15,233,44,208q-.69-15.45-1.41-30.9l-1.32-29.53q4.78,6.6,9.51,13.23l4.71,6.63c.9,10.06,1.69,20.14,2.51,30.21q1.37,16.63,2.77,33.27c.93,11.14,1.91,22.29,2.87,33.43Q65.1,280.64,66.44,297c1.82,21.94,3.83,43.85,5.83,65.77q3,32.36,6,64.7,2.08,22.36,4.33,44.72c.37,3.62.76,7.24,1.12,10.86s.71,7.14,1.07,10.7c.29,2.79.57,5.57.85,8.36-.26-.79-.53-1.57-.79-2.36-.9-2.65-1.78-5.3-2.66-8-1-2.88-1.94-5.75-2.94-8.61s-2-5.92-3.07-8.89q-6.18-18-12.39-36Q59.19,425,54.63,411.73l-.12-.11a4.28,4.28,0,0,1-.93-1.44h-.06a.58.58,0,0,0-.4.72q6.23,18.16,12.38,36.36,3,8.94,6.1,17.89c2,5.93,4.08,11.86,6.08,17.81.74,2.22,1.5,4.45,2.27,6.67.69,2,1.4,4,2.1,6s1.47,4.21,2.2,6.31c.56,1.61,1.12,3.23,1.7,4.83ZM53,408.59h0Zm372.72-40.35h.1c0,.08,0,.15,0,.22l-.15.07Zm7.4-272.78L433,98.14c-.17,3.59-.33,7.18-.5,10.77l-.57,13q-.28,6.53-.58,13c-.3,6.76-.57,13.63-.83,20.27l-.25,6.28-.36,9-.72,17.84c-.13,3.35-.27,6.69-.41,10q-.33,8.13-.65,16.27c-.14,3.55-.29,7.11-.44,10.66-.21,5.31-.44,10.8-.64,16.2-.78,20.88-1.34,36.92-1.83,52q-.12,3.85-.25,7.71c-.34,10.69-.7,21.75-.95,32.63-.05,2-.09,4-.12,6,0,1.28-.05,2.56-.08,3.84l0,1.53c0,1.14-.06,2.28-.07,3.42,0,.36,0,.72,0,1.08s0,.44,0,.65c0,.74,0,1.47,0,2.21,0,1.38,0,2.76,0,4.14,0,.77,0,1.53,0,2.29,0,.49,0,1,0,1.45,0,.16,0,.31,0,.46s0,.34,0,.52V362c0,.23,0,.47,0,.7s0,.61,0,.91,0,.67,0,1a4.3,4.3,0,0,0,.23,1.54,1.74,1.74,0,0,0,.35.64c0,.24-.08.49-.11.73L424,368c-.06.45-.11.89-.15,1.34l-1,.42c-.35.16-.72.32-1.07.5s-.59.26-.66.29c-.3.13-.6.26-.9.41-.69.34-1.39.65-2.09,1l-3.38,1.6-12.47,5.9-26.42,12.51-57.3,27.13L203.73,473.47q-27.54,13-55,26.19c-9.19,4.4-18.38,8.79-27.55,13.24s-18.4,9-27.66,13.41l-.06,0c-.11-.71-.22-1.42-.32-2.13l.1,0a.69.69,0,0,0,.68-.68,4.85,4.85,0,0,1,0-.66l.06-.46c0-.25,0-.5.07-.75,0-.41.06-.81.09-1.21l.18-2.76a.83.83,0,0,0-.83-.83.83.83,0,0,0-.58.24.9.9,0,0,0-.25.59c0,.21,0,.41,0,.62l-.09-.11c0-.53-.08-1.07-.11-1.6l.09-.62a1,1,0,0,0-.1-.73s-.06-.07-.09-.11a2.45,2.45,0,0,1,0-.27l-.12-2.43c0-1,.07-2.06.11-3.09a.81.81,0,0,0-.28-.64l-.15-3.64-.06-1.62a1.57,1.57,0,0,0-.9-1.39q-.3-3.55-.62-7.11-1.31-15.3-2.61-30.61c-1.83-21.1-3.86-42.19-5.84-63.28q-3.1-32.85-6.27-65.69c-1-10.87-2.11-21.75-3.24-32.62s-2.25-21.53-3.33-32.3q-2.66-26.36-5.36-52.69-1.4-13.39-2.8-26.8-1-9.56-2-19.1l1.09,1.34v-.35a4.48,4.48,0,0,1-.07-1,3.36,3.36,0,0,1-.37-1l-.18-1.31c0-.23-.06-.45-.07-.67a3.65,3.65,0,0,1,1.36-3c0-.07-.1-.15-.16-.22l-1.23-1.66.41-.08c1.42-.29,2.86-.5,4.29-.73,3-.47,5.92-1,8.88-1.56,5.52-1,11-2.06,16.56-3.11,11.4-2.17,22.8-4.36,34.17-6.66l60.74-12.32c-.1,1.87-.28,3.73-.43,5.59-.23,2.83-.42,5.66-.54,8.5l-.51.26a10.5,10.5,0,0,0-2,1.46,9.85,9.85,0,0,0-1.58,1.89,13.63,13.63,0,0,0-1.3,2.29,13.91,13.91,0,0,0-1.19,3.5,13.27,13.27,0,0,0-.07,4.49,17.11,17.11,0,0,0,.59,2.57,13.86,13.86,0,0,0,1.1,2.49,7.13,7.13,0,0,0,2.94,2.74,11.41,11.41,0,0,0,3.17,1,11.88,11.88,0,0,0,3.15.13,8,8,0,0,0,2.31-.51,8.33,8.33,0,0,0,1.56-.83,10.59,10.59,0,0,0,3-3.26,21.06,21.06,0,0,0,1.26-2.4,17,17,0,0,0,1.5-5.53,9,9,0,0,0-.17-2.89,11.17,11.17,0,0,0-1.05-2.59,7.62,7.62,0,0,0-.6-.92c.06-.67.12-1.34.17-2,.14-1.91.22-3.82.28-5.73,0-1,.07-1.94.06-2.91s0-2-.09-2.92c-.11-2.22-.22-4.44-.29-6.66l67.92-13.75q34.44-7,68.89-14c0,.64.1,1.28.13,1.93.07,1.48.13,3,.11,4.44,0,.38,0,.75,0,1.12a2.7,2.7,0,0,0-.14.4,5.62,5.62,0,0,0-.06.56c0,.22-.05.45-.06.67,0,.5-.08,1-.11,1.51s-.06.89-.08,1.33a12.34,12.34,0,0,1-.33,1.19c-.27.83-.58,1.65-.84,2.49a28.93,28.93,0,0,0-1.39,5.72,5.63,5.63,0,0,0,.23,2.51,4.11,4.11,0,0,0,1.09,1.63,4.5,4.5,0,0,0,.79.56,3.57,3.57,0,0,0,1.39.42,4.2,4.2,0,0,0,3.09-1.37,9,9,0,0,0,1.27-1.54,16.83,16.83,0,0,0,2.59-5.6c.16-.6.29-1.2.42-1.81.21.35.41.7.61,1.06s.53,1,.76,1.5a8.59,8.59,0,0,1,.36,1.32,9.35,9.35,0,0,1,0,1.4c-.06.34-.13.68-.22,1s-.26.85-.42,1.26a10.33,10.33,0,0,1-1,1.75c-.32.39-.64.76-1,1.12s-.67.61-1,.9a10.44,10.44,0,0,1-1.62.93,8,8,0,0,1-1.58.43,9.92,9.92,0,0,1-2.11,0,14.84,14.84,0,0,1-2.87-.86,9.61,9.61,0,0,1-1.66-.92,7.35,7.35,0,0,1-.93-.92,9.08,9.08,0,0,1-.72-1.24,9.5,9.5,0,0,1-.43-1.56,12.27,12.27,0,0,1,0-2.1l.05-.35A6.61,6.61,0,0,1,327,129a6.85,6.85,0,0,1,.63-1,16.76,16.76,0,0,1,2.61-2.58,1.06,1.06,0,0,0,.33-.79,1.13,1.13,0,0,0-.33-.79,1.1,1.1,0,0,0-.79-.33,1.25,1.25,0,0,0-.79.33,18,18,0,0,0-2.9,2.89,7.63,7.63,0,0,0-.79,1.21,8.75,8.75,0,0,0-.51,1.28,9.1,9.1,0,0,0-.32,1.62,11.34,11.34,0,0,0-.1,2.33,8.34,8.34,0,0,0,.57,2.56,8.78,8.78,0,0,0,.57,1.2,7.38,7.38,0,0,0,.95,1.27,8,8,0,0,0,2.1,1.65c.35.19.71.35,1.07.51a16.18,16.18,0,0,0,2.77,1,10.69,10.69,0,0,0,3.09.2,11.64,11.64,0,0,0,1.55-.25,9.5,9.5,0,0,0,1.47-.52,9.73,9.73,0,0,0,2.29-1.39c.3-.25.59-.49.87-.75a11,11,0,0,0,1.32-1.49,10.15,10.15,0,0,0,.85-1.28,9.85,9.85,0,0,0,.56-1.29,12,12,0,0,0,.74-3.84,7,7,0,0,0-.27-2,5.32,5.32,0,0,0-.25-.77,13.49,13.49,0,0,0-.88-1.79c-.28-.49-.57-1-.88-1.45a7.52,7.52,0,0,0-1.41-1.66l-.15-.1a65,65,0,0,0,.81-6.94c.16-2.77.2-5.54.17-8.32l18.31-3.75q14-2.86,28-5.78,12-2.5,24.05-5,6.19-1.28,12.4-2.61c1.67-.36,3.34-.75,5-1.11a7.07,7.07,0,0,0,1.47-.38l.58-.14a2.2,2.2,0,0,0,.68-.31l.11-.05h0l.1,0,.27-.09.53-.13c-.08,1.58-.15,3.16-.23,4.71Z"/>
    <path class="a" d="M424.07,367.66l0-.15v0Z"/>
    <path class="a" d="M424,368.07V368S424,368,424,368.07Z"/>
    <path class="a" d="M340.61,88.92h0v0Z"/>
    <path class="a" d="M340.6,88.88v0h0Z"/>
    <path class="a" d="M125.32,87.64l.19-.24,0-.06Z"/>
    <path class="a" d="M260.67,109.58c.06.1.14.18.2.27a1.77,1.77,0,0,1,0,.2,5.92,5.92,0,0,0,1.15,2.38,5.54,5.54,0,0,0,1.06,1,5,5,0,0,0,1.45.7,6.26,6.26,0,0,0,1.49.24,8.17,8.17,0,0,0,1.4,0c.43,0,.86-.08,1.29-.14A14.26,14.26,0,0,0,273,113c.35-.17.7-.33,1-.52a12.46,12.46,0,0,0,1.64-1.16,9.43,9.43,0,0,0,1.34-1.34,8.68,8.68,0,0,0,1.15-1.73,6.22,6.22,0,0,0,.63-2,9.1,9.1,0,0,0,.1-1,7.69,7.69,0,0,0-.13-1.26,9,9,0,0,0-1-2.69,6.71,6.71,0,0,0-.64-.87,1.94,1.94,0,0,0-.36-.34,1.22,1.22,0,0,0,0-.57,1.15,1.15,0,0,0-.52-.68,1.17,1.17,0,0,0-1.43.22,11.14,11.14,0,0,0-1.42-.44,14,14,0,0,0-2.33-.29h-.82a9.52,9.52,0,0,0-1.59.16l-.83.16-.44,0a6.09,6.09,0,0,0-2.41.93,8.46,8.46,0,0,0-2,1.7,7,7,0,0,0-.73,1,7.35,7.35,0,0,0-.55,1.21,3.17,3.17,0,0,0-.14.4,1.77,1.77,0,0,0-1,.53,2.11,2.11,0,0,0-.57.95,3.32,3.32,0,0,0-.11.83,8.77,8.77,0,0,0,.16,1.77A5,5,0,0,0,260.67,109.58Zm9.29-8.14.69.57a1.06,1.06,0,0,0,.71.3,1,1,0,0,0,.71-.3,1,1,0,0,0,.29-.63,8.06,8.06,0,0,1,1.07.29l-.24.35a5.93,5.93,0,0,1-.47.53c-.18.17-.37.33-.56.49a10.9,10.9,0,0,1-1.08.68c-.33.18-.68.35-1,.5a11.11,11.11,0,0,1-2.12.59,6.54,6.54,0,0,1-1.17,0,3.83,3.83,0,0,1-.58-.16,4.61,4.61,0,0,1-.75-.44,2.13,2.13,0,0,1-.34-.33l-.11-.19a.85.85,0,0,1,0-.17v-.08a1,1,0,0,1,0-.17c0-.08.09-.15.14-.23a3.64,3.64,0,0,1,.45-.43,5.65,5.65,0,0,1,.89-.53,11.34,11.34,0,0,1,1.74-.43.81.81,0,0,0,.6-.55l.63,0A5.84,5.84,0,0,1,270,101.44Z"/>
    <path class="a" d="M121.84,140.2a2.73,2.73,0,0,0,.3.56,1.67,1.67,0,0,0,.59.62,3.49,3.49,0,0,0,.44.2,1.31,1.31,0,0,0,.68,0,1.29,1.29,0,0,0,.48-.2,8,8,0,0,0,4,3,5.22,5.22,0,0,0,1.3.23,6.06,6.06,0,0,0,1.41-.11,7.8,7.8,0,0,0,1.16-.27,7.63,7.63,0,0,0,1.45-.67,13.59,13.59,0,0,0,2.46-1.88,14.86,14.86,0,0,0,1.24-1.38c.27-.33.51-.67.77-1s.37-.52.53-.78c.34-.56.68-1.11,1-1.7a11.88,11.88,0,0,0,1.27-3.34,9.39,9.39,0,0,0-.11-3.62,5.28,5.28,0,0,0-.31-.95,5.78,5.78,0,0,0-.67-1.25,4.75,4.75,0,0,0-.87-.92,6.31,6.31,0,0,0-1.18-.74,11.18,11.18,0,0,0-2.66-.8c-.61-.11-1.21-.21-1.82-.26q-.36,0-.72,0a11.16,11.16,0,0,0-2.45.29,9.1,9.1,0,0,0-4.82,3.4,1.35,1.35,0,0,0-.37.89,1.55,1.55,0,0,0,0,.21c-.33.39-.66.8-1,1.22a14.33,14.33,0,0,0-.92,1.42,12.75,12.75,0,0,0-.63,1.22,19.68,19.68,0,0,0-.72,1.85,7.58,7.58,0,0,0-.32,3.34A5,5,0,0,0,121.84,140.2Zm12.49-11.42a5,5,0,0,1,.69.18c.14.07.26.15.39.23a5,5,0,0,1,.51.52,3.78,3.78,0,0,1,.3.51.13.13,0,0,1,0,.06,10.87,10.87,0,0,1-.36,1.1,12.11,12.11,0,0,1-1,1.78,8.53,8.53,0,0,1-.79.8c-.31.2-.61.4-.92.58l-.24.14a7.6,7.6,0,0,1-1.42.37,10.11,10.11,0,0,1-2.2,0,7.42,7.42,0,0,1-1.4-.38,5,5,0,0,1-.71-.41,3.83,3.83,0,0,1-.29-.28l-.11-.19c0-.1,0-.19-.07-.28a2.64,2.64,0,0,1,0-.4,3.92,3.92,0,0,1,.2-.69,4.72,4.72,0,0,1,.43-.72,7.65,7.65,0,0,1,.62-.65c.22-.21.45-.4.69-.59a10.47,10.47,0,0,1,1.38-.79,16.39,16.39,0,0,1,2.94-.72.77.77,0,0,0,.34-.19C133.63,128.75,134,128.75,134.33,128.78Z"/>
  </g>
</svg>
